<?xml version="1.0" standalone="no"?>
<!DOCTYPE svg PUBLIC "-//W3C//DTD SVG 20010904//EN"
 "http://www.w3.org/TR/2001/REC-SVG-20010904/DTD/svg10.dtd">
<svg version="1.0" xmlns="http://www.w3.org/2000/svg"
 width="1280.000000pt" height="832.000000pt" viewBox="0 0 1280.000000 832.000000"
 preserveAspectRatio="xMidYMid meet">
<g transform="translate(0.000000,832.000000) scale(0.100000,-0.100000)"
fill="#000000" stroke="none">
<path d="M4900 7924 c-14 -3 -77 -11 -140 -20 -317 -42 -629 -121 -1080 -272
-1118 -376 -1572 -601 -2025 -1006 -250 -224 -377 -400 -503 -696 -33 -79 -95
-266 -115 -345 -2 -11 -14 -54 -25 -95 -54 -197 -116 -566 -207 -1220 -106
-768 -211 -1298 -370 -1870 -74 -266 -196 -582 -316 -823 -33 -65 -58 -121
-56 -123 7 -7 190 245 259 356 403 649 639 1387 871 2729 20 116 33 100 46
-61 15 -165 45 -402 66 -503 8 -38 21 -108 30 -155 9 -47 23 -113 30 -147 8
-35 22 -93 31 -130 8 -38 44 -180 79 -318 72 -278 122 -497 157 -685 20 -109
23 -155 22 -355 -1 -402 -57 -756 -209 -1310 -25 -91 -99 -376 -118 -452 -14
-58 10 -96 89 -140 159 -87 489 -122 874 -93 157 12 228 37 254 89 26 49 19
72 -49 161 -36 47 -72 107 -81 133 -15 45 -15 52 0 90 9 23 68 114 131 202
186 260 302 488 390 768 23 71 42 116 49 114 6 -2 28 -64 48 -138 21 -74 44
-146 52 -160 17 -28 90 -283 132 -455 17 -71 27 -139 27 -194 1 -79 -1 -90
-36 -160 -91 -182 -15 -242 344 -271 208 -16 690 -7 789 16 95 21 153 47 185
81 49 53 28 116 -89 262 -41 51 -88 114 -105 141 -36 55 -42 94 -65 398 -40
516 -53 634 -96 888 -34 202 -76 367 -131 525 -52 150 -73 226 -65 245 5 13
44 15 313 13 325 -3 338 -2 513 48 150 43 299 104 554 226 346 166 626 275
687 266 24 -3 24 -5 26 -123 2 -152 17 -408 49 -845 30 -398 35 -666 15 -755
-41 -184 -109 -339 -229 -521 -145 -219 -222 -388 -222 -486 1 -96 66 -176
196 -239 168 -81 371 -113 679 -107 156 3 196 6 222 21 80 43 82 95 9 243 -30
60 -60 136 -67 169 -16 82 -2 124 129 390 122 245 171 372 206 528 31 136 44
226 56 383 8 118 42 240 66 238 12 0 138 -250 241 -479 109 -242 178 -415 264
-657 39 -112 103 -268 142 -347 91 -186 95 -216 41 -333 -72 -152 -47 -259 76
-320 91 -46 150 -53 455 -52 402 1 536 23 618 104 67 68 49 122 -80 243 -293
274 -300 284 -323 522 -60 620 -119 990 -320 1995 -44 217 -84 422 -90 455
-88 486 -128 755 -137 921 l-6 111 169 120 c93 66 174 123 180 126 7 4 31 0
55 -8 46 -17 200 -53 359 -85 168 -34 280 -69 384 -121 63 -31 64 -33 129
-148 323 -581 712 -923 1022 -898 77 6 215 35 215 46 0 3 -41 41 -90 84 -50
43 -90 82 -90 88 0 12 49 12 121 0 31 -5 147 -17 256 -26 185 -15 216 -15 404
0 295 23 482 64 679 148 378 162 628 432 732 791 28 98 28 99 28 391 0 279 -1
297 -25 388 -82 316 -278 637 -542 887 -106 101 -179 152 -288 199 -72 32 -89
35 -175 35 -91 1 -99 -1 -171 -37 -92 -46 -179 -121 -204 -177 -17 -38 -18
-45 -4 -83 16 -47 -1 -44 181 -31 66 4 100 2 145 -11 272 -78 538 -416 598
-762 17 -99 20 -273 5 -359 -39 -227 -193 -426 -413 -533 -95 -47 -167 -67
-292 -82 -348 -40 -593 128 -795 546 -97 202 -157 390 -250 795 -66 282 -149
586 -215 787 -59 180 -89 233 -230 413 -89 113 -130 176 -190 285 -63 117
-120 197 -187 262 -147 144 -290 212 -531 253 -252 43 -503 19 -982 -94 -363
-85 -508 -115 -675 -141 -385 -59 -530 -45 -1065 107 -499 140 -765 198 -1055
227 -99 11 -295 13 -350 5z"/>
</g>
</svg>
