<?xml version="1.0" standalone="no"?>
<!DOCTYPE svg PUBLIC "-//W3C//DTD SVG 20010904//EN"
 "http://www.w3.org/TR/2001/REC-SVG-20010904/DTD/svg10.dtd">
<svg version="1.0" xmlns="http://www.w3.org/2000/svg"
 width="1280.000000pt" height="1116.000000pt" viewBox="0 0 1280.000000 1116.000000"
 preserveAspectRatio="xMidYMid meet">
<g transform="translate(0.000000,1116.000000) scale(0.100000,-0.100000)"
fill="#000000" stroke="none">
<path d="M1058 10713 c-9 -10 -29 -54 -44 -98 -27 -77 -28 -87 -28 -285 0
-113 3 -251 7 -307 7 -99 -2 -153 -24 -153 -8 0 -39 -64 -39 -80 0 -5 7 -10
15 -12 14 -3 13 -6 -2 -28 -10 -14 -19 -43 -21 -65 -1 -22 -3 -49 -4 -60 -1
-11 -13 -29 -26 -40 -25 -21 -52 -84 -52 -121 0 -11 -3 -24 -7 -28 -4 -4 -8
-25 -9 -46 -2 -31 2 -43 17 -51 15 -8 17 -14 9 -29 -5 -10 -10 -34 -10 -52 0
-18 -7 -57 -14 -85 -8 -29 -11 -55 -8 -57 8 -5 6 -146 -2 -186 -4 -22 -62
-188 -111 -320 -9 -25 -21 -70 -26 -100 -6 -30 -12 -63 -15 -72 -7 -25 15 -23
43 4 30 28 39 18 19 -21 -9 -16 -16 -36 -16 -44 0 -26 29 -27 49 -2 10 14 22
25 26 25 3 0 3 -25 0 -55 -5 -35 -4 -55 3 -55 5 0 12 7 16 15 9 26 29 17 23
-11 -3 -18 3 -33 24 -54 16 -16 29 -39 29 -52 0 -18 2 -20 10 -8 18 28 23 0
11 -56 -11 -46 -11 -58 0 -64 9 -6 12 -33 10 -90 -1 -65 2 -85 14 -94 11 -8
18 -35 22 -84 4 -52 10 -72 18 -68 8 3 17 -16 25 -56 7 -33 18 -65 24 -71 7
-7 22 -31 34 -55 21 -41 21 -44 5 -69 -17 -25 -17 -26 7 -18 14 4 31 10 38 12
15 6 15 -2 2 -28 -8 -13 -7 -19 0 -19 6 0 8 -10 4 -25 -5 -19 -2 -25 10 -25
15 0 15 -3 0 -37 -29 -70 -29 -66 -6 -54 28 15 42 14 42 -4 0 -11 7 -14 25 -9
15 4 25 2 25 -5 0 -6 11 -11 25 -11 18 0 25 -5 25 -19 0 -30 16 -34 37 -8 10
12 17 20 15 18 -1 -2 4 -14 12 -26 11 -17 11 -24 1 -38 -7 -10 -11 -27 -8 -38
4 -14 -4 -31 -26 -53 -20 -20 -29 -39 -26 -48 4 -9 2 -19 -4 -23 -6 -3 -11
-12 -11 -18 0 -7 4 -6 10 3 8 13 13 13 30 2 11 -7 25 -10 31 -7 21 14 69 23
74 15 3 -5 -7 -21 -22 -36 -16 -14 -22 -23 -15 -20 7 4 15 0 18 -9 6 -14 8
-14 25 1 29 26 23 4 -8 -28 -26 -27 -26 -28 -5 -28 29 0 28 -18 -4 -51 l-26
-27 31 -7 c17 -4 31 -10 31 -15 0 -11 -22 -27 -43 -31 -10 -2 -18 -8 -18 -14
-1 -5 -4 -14 -8 -20 -26 -33 -15 -40 14 -9 19 20 38 35 40 32 9 -9 -47 -108
-61 -108 -8 0 -14 5 -14 10 0 6 -8 5 -19 -2 -23 -14 -17 -31 8 -23 24 7 44
-19 36 -45 -4 -12 0 -26 9 -35 13 -14 16 -13 26 6 7 11 18 18 25 15 8 -3 39 6
70 19 65 29 78 30 96 9 17 -21 -6 -36 -43 -28 -20 4 -28 2 -28 -8 0 -17 -41
-58 -58 -58 -12 0 -32 -31 -32 -49 0 -19 20 -12 31 12 9 20 16 22 67 20 36 -1
65 3 79 13 50 32 69 8 31 -41 l-21 -27 34 17 c19 10 39 25 46 34 6 9 14 13 18
9 8 -8 -32 -68 -45 -68 -4 0 -10 -7 -14 -15 -7 -20 22 -5 46 24 20 24 58 28
58 6 0 -8 -12 -22 -26 -31 -17 -12 -24 -23 -21 -36 4 -15 -7 -26 -44 -49 -30
-19 -49 -38 -49 -49 0 -10 -5 -22 -10 -25 -6 -3 -10 -1 -10 5 0 6 -4 8 -10 5
-6 -4 -5 -11 3 -19 10 -11 17 -10 39 6 16 10 32 17 37 13 5 -3 13 0 16 6 4 5
13 8 20 5 8 -3 19 2 25 10 13 15 40 19 40 6 0 -15 -36 -42 -54 -42 -13 0 -16
-5 -11 -20 5 -15 0 -23 -19 -31 -29 -13 -43 -39 -21 -39 18 0 18 -5 5 -30 -11
-20 3 -39 15 -20 3 5 16 8 29 4 14 -3 27 1 35 10 8 9 20 16 28 16 7 0 31 9 53
20 49 25 64 26 51 2 -5 -9 -7 -29 -4 -43 3 -16 -1 -30 -11 -38 -24 -20 -20
-40 6 -33 l22 5 -21 -29 c-29 -43 -34 -61 -39 -143 -4 -80 0 -81 37 -11 29 54
42 65 51 42 5 -13 7 -11 7 8 1 37 41 72 41 36 0 -9 7 -12 20 -9 46 12 4 -51
-44 -67 -36 -12 -73 -55 -56 -65 5 -3 15 3 22 15 7 11 21 20 30 20 15 0 16 -4
8 -25 -6 -16 -6 -25 0 -25 6 0 16 11 22 25 21 47 33 28 33 -56 1 -59 5 -84 15
-93 9 -7 14 -24 12 -46 -2 -33 -2 -34 12 -15 8 11 23 28 33 38 23 23 103 68
103 57 0 -4 -21 -36 -47 -70 -35 -47 -43 -64 -33 -70 10 -6 11 -24 7 -70 -5
-42 -3 -59 4 -55 6 4 8 13 5 21 -3 7 3 23 14 36 16 20 19 21 25 6 6 -15 10
-14 30 10 33 38 39 23 20 -46 -19 -68 -15 -108 4 -49 9 27 18 37 29 35 13 -3
16 -13 14 -42 -3 -35 -1 -38 19 -33 19 5 21 3 16 -23 -5 -23 -2 -29 17 -34 14
-3 26 -16 30 -31 5 -21 11 -24 31 -19 20 5 25 2 25 -13 0 -11 14 -26 37 -38
27 -15 43 -35 65 -80 15 -33 28 -69 28 -81 0 -33 57 -114 80 -114 11 0 23 -8
26 -17 13 -41 37 -93 44 -93 11 0 53 -82 75 -145 21 -60 77 -135 102 -135 7 0
22 -18 33 -40 11 -22 26 -40 33 -40 7 0 18 -15 25 -34 7 -19 21 -36 32 -39 28
-7 72 -110 100 -232 17 -73 25 -94 29 -76 9 36 27 36 40 1 6 -16 16 -44 22
-60 11 -29 29 -41 29 -19 0 5 5 7 10 4 6 -3 10 -17 10 -30 0 -18 4 -23 15 -19
8 4 15 2 15 -3 0 -12 59 -102 83 -125 9 -10 22 -18 27 -18 6 0 10 -5 10 -12 0
-6 13 -40 30 -74 29 -63 44 -111 59 -189 4 -22 12 -49 18 -60 11 -21 15 -37
54 -225 22 -112 35 -163 49 -195 8 -20 61 -299 80 -429 6 -38 13 -72 15 -76 6
-10 14 -121 19 -270 6 -144 -11 -319 -48 -495 -53 -256 -147 -448 -291 -596
-87 -89 -150 -124 -329 -185 -54 -18 -113 -44 -130 -57 -17 -13 -58 -38 -92
-55 l-60 -31 -22 -75 c-12 -41 -25 -83 -29 -93 -3 -10 12 -1 36 22 l43 40 -7
-45 -6 -45 45 -22 c64 -32 186 -40 296 -19 213 40 334 72 453 119 124 49 129
52 204 129 67 68 87 97 140 206 35 70 63 132 63 137 0 6 10 26 23 45 13 19 32
58 42 85 10 28 33 80 52 117 18 36 33 71 33 77 0 6 9 26 20 46 11 20 20 42 20
50 0 14 27 75 57 130 6 11 17 40 23 65 7 25 16 56 21 70 12 37 28 103 33 136
3 16 11 56 20 90 8 33 18 87 22 120 16 151 24 196 36 211 6 7 5 14 -2 18 -5 3
-8 16 -5 28 3 12 7 62 9 112 4 90 4 90 45 112 2 1 -7 16 -19 33 -20 27 -21 39
-16 98 17 177 17 181 36 187 26 8 70 -12 70 -32 0 -10 7 -31 16 -48 21 -41 41
-116 70 -265 13 -69 31 -159 39 -201 78 -379 68 -803 -26 -1168 -48 -184 -109
-317 -192 -417 -64 -77 -78 -88 -156 -125 -47 -22 -121 -52 -163 -65 -43 -14
-90 -35 -105 -47 -15 -12 -54 -35 -86 -52 -89 -46 -94 -53 -102 -145 -4 -45
-5 -83 -2 -86 3 -3 15 13 28 35 25 46 39 52 39 19 0 -52 21 -99 48 -110 39
-16 302 -11 407 7 192 33 273 61 370 129 88 61 91 65 167 192 71 117 98 168
129 244 6 14 17 38 25 53 8 16 14 35 14 43 0 9 18 53 40 100 22 47 40 89 40
94 0 5 15 42 33 82 19 40 44 107 57 148 13 41 28 84 34 95 9 18 18 46 60 198
7 27 23 55 35 63 24 17 28 36 6 28 -9 -4 -15 -1 -15 7 1 37 21 154 29 163 5 6
8 31 6 56 -1 25 2 56 7 69 5 14 11 54 12 90 9 166 18 282 27 356 5 44 11 114
14 155 2 41 6 109 10 150 3 41 7 129 9 195 4 127 9 150 32 159 13 5 13 10 -1
35 -17 34 -20 87 -5 96 7 4 6 13 -1 27 -8 15 -8 22 1 28 7 5 10 15 7 24 -4 10
1 23 13 33 24 21 26 39 5 47 -24 9 -17 35 10 42 14 3 25 12 25 20 0 8 8 14 18
15 13 0 12 2 -6 9 -12 5 -29 7 -37 4 -10 -4 -15 0 -15 15 0 31 57 28 101 -4
19 -13 54 -34 79 -46 25 -12 53 -26 63 -31 42 -21 26 5 -47 77 -42 41 -76 80
-76 86 0 7 11 9 30 6 33 -7 40 6 13 22 -17 10 -17 12 0 25 15 12 15 15 2 26
-8 7 -15 18 -15 25 0 7 -7 18 -15 25 -9 8 -13 21 -9 32 3 12 -1 27 -12 39 -17
19 -17 20 4 26 25 6 27 14 11 30 -18 18 1 36 32 29 22 -4 29 -2 29 10 0 8 5
12 10 9 22 -13 8 15 -30 63 -22 27 -40 52 -40 55 0 3 16 4 35 3 19 -2 36 2 38
8 2 7 14 7 40 -1 26 -8 37 -8 40 0 5 17 129 9 159 -10 8 -4 9 0 5 11 -5 12 1
20 21 28 15 6 33 10 40 9 13 -2 42 22 42 35 0 4 -11 19 -24 33 -29 33 -45 87
-22 77 42 -17 50 -17 29 0 -40 29 -29 44 27 37 28 -3 50 -3 50 0 0 3 -11 23
-25 43 -25 37 -27 55 -3 37 7 -5 26 -10 41 -11 22 -1 30 3 34 19 4 15 11 19
24 15 63 -20 63 -20 56 -2 -6 15 -3 17 23 11 20 -4 30 -3 30 5 0 8 9 10 27 6
l26 -7 -17 26 c-21 31 -16 41 12 26 33 -17 44 -14 32 9 -17 32 10 25 63 -15
25 -19 49 -35 52 -35 4 0 4 14 1 30 -3 17 -9 44 -12 60 -6 29 -5 31 22 24 30
-8 28 2 -9 43 -28 31 -14 40 28 20 43 -21 56 -21 49 -3 -7 19 48 31 75 17 25
-14 34 -14 26 -1 -13 21 23 9 63 -21 24 -17 46 -29 49 -25 3 3 -15 28 -40 55
-44 47 -63 77 -34 53 11 -9 67 -12 67 -4 0 2 -9 15 -20 29 -29 37 -19 39 31 7
27 -17 44 -23 47 -15 2 6 12 11 23 11 25 0 24 6 -6 42 -33 39 -32 52 5 33 29
-15 60 -20 60 -9 0 3 -5 14 -10 25 -16 29 2 23 61 -21 29 -22 55 -37 58 -35 2
3 -1 11 -7 17 -25 25 -10 27 28 3 70 -44 81 -29 20 30 -22 21 -38 40 -36 42 2
2 25 -8 51 -22 48 -25 95 -33 95 -16 0 6 -5 13 -11 16 -5 4 -8 12 -6 18 2 7
-5 24 -15 40 -20 28 -11 35 23 17 26 -15 24 -9 -16 41 -39 49 -43 64 -17 57
20 -6 37 9 37 32 0 8 6 14 14 12 66 -14 71 -14 71 2 0 11 9 16 26 16 14 0 41
7 59 16 25 12 38 13 54 5 26 -15 34 -14 28 3 -3 8 5 18 19 25 36 16 46 14 43
-11 -3 -35 13 -148 21 -148 4 0 13 7 20 15 12 14 15 13 35 -5 12 -12 29 -38
38 -58 31 -73 97 -298 103 -352 4 -30 14 -71 23 -90 l16 -35 2 35 c8 87 25
102 38 33 3 -21 17 -66 31 -100 14 -36 24 -82 24 -111 0 -36 5 -53 18 -63 10
-8 29 -39 41 -69 33 -76 101 -212 117 -230 27 -32 92 -169 114 -239 12 -40 31
-82 40 -91 10 -10 24 -28 30 -40 6 -12 18 -19 25 -16 17 6 30 -10 39 -47 4
-16 11 -25 17 -21 13 7 61 -46 89 -99 11 -20 43 -58 70 -84 28 -26 50 -53 50
-60 0 -6 6 -16 13 -20 8 -4 21 -28 29 -53 8 -25 27 -63 42 -84 14 -21 26 -47
26 -57 0 -10 4 -20 9 -23 4 -3 14 -26 21 -52 11 -40 15 -44 25 -30 7 8 15 13
18 9 4 -3 7 -1 7 5 0 9 5 9 20 0 11 -7 20 -23 20 -35 0 -25 16 -39 24 -21 5
13 18 0 66 -62 11 -14 38 -48 60 -76 22 -29 40 -58 40 -65 0 -7 9 -22 19 -33
19 -20 48 -120 86 -291 9 -44 21 -90 26 -102 13 -35 22 -430 11 -520 -8 -66
-17 -93 -45 -140 -35 -57 -38 -59 -204 -146 -92 -48 -179 -96 -193 -106 -14
-10 -66 -44 -117 -75 l-91 -57 -33 -92 c-23 -63 -29 -92 -21 -95 7 -2 12 -10
12 -18 0 -17 12 -18 28 -2 9 9 13 7 18 -6 6 -16 8 -16 27 1 16 15 21 15 25 4
8 -23 68 -79 83 -78 8 1 57 -2 109 -7 166 -14 392 25 552 95 l117 51 46 96
c53 108 84 247 105 467 6 66 15 154 20 195 5 41 11 102 14 135 4 33 11 96 17
140 18 133 21 687 4 770 -19 92 -19 92 8 99 16 4 29 -1 48 -22 23 -25 27 -27
36 -13 9 14 13 12 22 -13 9 -22 14 -26 25 -17 16 14 31 -1 41 -42 5 -19 12
-26 22 -23 22 9 68 -19 82 -50 9 -21 15 -25 21 -15 6 10 11 8 20 -10 7 -13 25
-38 39 -55 74 -89 69 -81 106 -143 11 -19 29 -45 41 -60 29 -36 54 -86 54
-109 0 -11 7 -35 15 -55 76 -181 141 -610 125 -828 -7 -100 -9 -108 -46 -164
-42 -64 -79 -92 -224 -174 -52 -30 -113 -70 -135 -88 -22 -19 -71 -59 -109
-90 -72 -59 -99 -103 -141 -231 -30 -94 -6 -72 69 61 32 56 51 53 42 -6 -5
-27 -1 -56 10 -87 16 -46 17 -46 85 -64 68 -17 205 -22 309 -11 25 2 119 12
210 21 165 16 165 16 228 57 35 22 70 50 77 61 8 12 23 91 34 176 26 197 30
247 37 455 3 93 8 173 10 177 3 5 7 77 9 161 3 83 7 179 10 212 3 33 1 130 -5
215 -6 85 -13 209 -15 275 -7 149 -12 194 -29 220 -7 11 -16 37 -19 59 -3 21
-17 60 -31 86 -13 25 -28 63 -31 83 -4 19 -18 57 -31 83 -30 59 -30 81 -2 103
27 22 16 43 -20 36 -21 -4 -23 -4 -7 3 18 8 18 10 -11 25 -33 17 -47 38 -38
60 2 7 -6 23 -18 35 -49 46 -60 62 -55 75 3 8 1 19 -5 25 -14 14 -1 32 23 32
10 0 19 5 19 10 0 6 -7 10 -15 10 -19 0 -64 46 -76 78 -6 16 -3 32 10 55 11
20 17 44 14 60 -3 15 0 34 7 41 9 12 5 18 -22 32 -50 26 -67 64 -28 64 14 0
20 7 20 24 0 13 6 26 13 29 8 3 4 12 -12 30 -20 22 -22 29 -11 42 7 8 10 18 7
22 -4 3 -2 12 5 20 9 11 4 21 -21 47 -42 43 -50 93 -21 124 20 21 20 25 7 40
-32 36 -32 152 -1 152 18 0 18 10 0 24 -8 6 -18 23 -21 38 -6 24 -3 29 26 41
l34 13 -28 18 c-34 23 -34 34 1 64 25 21 25 22 4 17 -26 -8 -44 22 -21 36 11
7 12 12 2 28 -11 17 -10 22 7 31 10 6 17 17 14 24 -3 8 14 41 38 74 32 45 50
61 73 65 45 7 50 -2 19 -34 -30 -32 -28 -48 5 -28 11 7 24 10 28 6 11 -12 -29
-81 -54 -92 -12 -5 -25 -20 -28 -32 -4 -16 -15 -26 -35 -30 -29 -5 -36 -13
-24 -26 8 -8 41 9 71 37 29 27 91 61 99 53 3 -3 0 -15 -6 -28 -12 -21 -11 -22
20 -16 28 6 31 5 24 -11 -4 -9 -8 -30 -8 -47 -1 -32 -1 -32 72 -34 37 -1 42
-4 42 -23 0 -27 -27 -108 -42 -125 -7 -9 -7 -13 0 -13 6 0 14 5 17 10 3 6 14
10 24 10 14 0 17 -6 13 -25 -2 -14 -8 -28 -13 -31 -20 -12 -7 -25 19 -19 37 8
57 -14 48 -55 l-6 -30 27 17 c26 18 27 17 19 -2 -5 -11 -10 -49 -11 -85 -1
-38 -10 -80 -20 -100 -17 -34 -16 -34 29 13 26 26 51 47 56 47 16 0 11 -30 -6
-37 -11 -4 -12 -8 -4 -13 13 -8 -10 -101 -31 -126 -22 -26 9 -15 55 21 26 19
50 35 54 35 10 0 7 -103 -4 -137 -3 -13 -3 -23 0 -23 15 0 65 30 69 42 2 7 8
10 12 6 4 -4 -3 -21 -15 -38 -19 -26 -20 -34 -9 -41 8 -4 14 -16 15 -26 1 -10
2 -30 3 -45 0 -18 7 -28 16 -28 8 0 15 -7 15 -15 0 -10 10 -15 31 -15 27 0 30
-2 19 -15 -10 -12 -9 -16 4 -21 9 -3 16 -13 16 -20 0 -11 4 -12 19 -4 29 15
35 13 55 -21 17 -29 17 -32 2 -41 -9 -5 -16 -14 -16 -20 0 -6 -8 -21 -17 -32
-10 -11 0 -6 21 11 22 18 43 30 47 27 4 -2 -1 -27 -11 -55 -20 -53 -18 -79 7
-79 11 0 12 -8 7 -37 -6 -31 -4 -35 10 -30 20 8 21 -9 2 -45 -16 -31 -11 -35
18 -13 11 8 28 15 37 15 16 0 16 -3 -2 -40 -31 -64 -26 -72 28 -43 29 15 49
21 51 14 2 -6 10 -11 18 -11 18 0 18 1 -5 -51 -12 -27 -17 -56 -14 -76 5 -29
7 -31 31 -22 31 12 43 2 47 -40 3 -40 14 -52 22 -23 5 20 7 21 18 6 10 -14 9
-26 -1 -60 -11 -36 -10 -42 1 -38 7 3 23 1 34 -6 14 -7 21 -7 21 0 0 5 4 10 9
10 6 0 6 -12 0 -32 -5 -18 -5 -34 0 -37 4 -4 10 -12 12 -18 3 -10 10 -10 31 1
30 16 38 12 38 -18 0 -15 3 -17 12 -8 21 21 27 13 30 -40 l3 -53 19 37 c15 29
24 36 45 34 24 -1 26 -5 23 -40 -4 -44 9 -42 28 4 13 32 30 32 30 -1 0 -10 5
-19 10 -19 6 0 10 7 10 15 0 21 6 19 47 -12 19 -15 49 -51 65 -80 35 -63 55
-80 43 -37 -5 16 -10 47 -12 69 -1 22 -5 51 -9 65 -5 22 -2 25 26 27 18 1 39
8 46 14 13 10 12 14 -1 29 -21 23 -19 40 6 40 13 0 20 6 18 18 -3 30 1 35 16
22 10 -9 19 -10 26 -3 6 6 -2 25 -22 53 -29 40 -30 44 -15 56 12 8 14 14 6 19
-16 10 7 35 32 35 17 0 18 3 8 15 -7 8 -19 15 -26 15 -14 0 -14 24 1 97 7 30
6 32 -26 35 -22 2 -34 8 -34 18 0 8 -4 21 -9 29 -9 15 -11 15 82 -6 l23 -6
-22 42 c-11 23 -25 44 -30 47 -5 3 -9 14 -9 24 0 11 -10 25 -22 32 l-23 12 25
6 c23 6 25 11 25 59 0 35 5 56 15 64 21 17 48 53 33 43 -8 -4 -13 -2 -13 8 0
8 -16 24 -35 36 -45 28 -49 67 -8 72 38 4 38 20 -3 46 -19 12 -38 30 -41 40
-3 9 -22 31 -42 49 l-36 32 39 1 c33 0 37 2 26 15 -10 12 -9 15 6 15 16 0 16
2 -2 23 -15 16 -19 31 -14 57 l5 35 60 -3 60 -2 -40 24 c-22 13 -62 31 -88 41
-58 22 -69 41 -38 64 20 15 21 19 8 30 -9 7 -14 24 -12 41 3 22 -1 33 -15 40
-11 6 -20 19 -20 29 0 10 -7 24 -15 31 -19 15 -10 80 12 93 18 11 -1 37 -28
37 -20 0 -36 19 -23 29 5 3 9 15 9 26 0 17 9 21 50 26 l50 5 -40 17 c-58 25
-146 71 -151 80 -3 4 11 7 30 7 32 0 36 3 45 37 9 33 8 41 -15 70 -14 18 -39
40 -57 50 -19 9 -27 18 -19 21 11 3 10 7 -1 21 -8 9 -17 27 -20 40 -5 22 -4
23 34 18 21 -3 41 -1 44 3 9 14 -6 39 -27 46 -11 3 -40 26 -66 50 -25 25 -70
56 -99 70 -29 15 -53 29 -53 33 0 3 15 16 34 29 23 16 32 29 29 41 -5 19 21
36 38 25 5 -3 9 -1 9 5 0 6 -13 17 -30 26 -27 14 -35 26 -31 48 1 4 -11 12
-26 18 -25 9 -26 11 -10 20 9 6 26 8 36 4 26 -8 48 20 31 40 -7 8 -21 15 -31
15 -22 0 -34 16 -19 25 18 11 -17 42 -56 50 -19 3 -32 10 -28 16 3 5 0 16 -6
24 -20 24 -4 43 44 50 25 4 46 11 46 16 0 12 -38 49 -50 49 -5 0 -10 5 -10 11
0 5 5 7 10 4 6 -3 10 -2 10 4 0 5 -13 12 -30 16 -31 7 -39 20 -17 28 6 2 -3
12 -21 21 -25 13 -31 20 -23 30 13 15 5 26 -19 26 -10 0 -23 7 -31 16 -10 13
-10 17 2 25 8 5 24 9 37 9 20 0 28 14 23 43 0 4 7 7 17 7 38 0 30 14 -20 39
-61 31 -76 61 -31 61 24 0 21 3 -24 25 -29 13 -53 29 -53 35 0 5 -7 10 -15 10
-9 0 -19 8 -22 18 -4 9 -15 29 -26 44 -21 29 -16 48 14 48 33 0 21 15 -36 44
-30 15 -57 32 -61 37 -3 5 6 19 20 30 31 24 33 39 7 39 -25 0 -80 64 -88 100
-3 16 -12 31 -20 34 -10 4 -13 14 -9 30 5 19 1 26 -15 31 -12 4 -18 13 -15 20
9 23 -20 38 -86 44 -15 2 -8 21 7 21 26 0 17 16 -30 54 -35 29 -45 44 -45 67
0 19 -6 32 -17 35 -10 3 -25 8 -33 11 -13 4 -12 6 3 17 25 19 22 24 -29 72
-26 23 -43 47 -40 53 4 6 -4 13 -19 17 -14 3 -25 10 -25 15 0 5 -9 9 -20 9
-11 0 -20 4 -20 10 0 15 66 40 117 44 24 2 47 6 50 10 7 7 -37 53 -72 73 -52
31 -94 46 -143 51 -72 6 -80 25 -8 20 31 -1 57 -1 57 2 11 42 3 63 -31 80 -19
10 -53 27 -75 39 -21 11 -53 21 -70 22 -16 0 -39 4 -49 8 -17 6 -15 9 13 20
22 10 29 17 21 26 -6 8 -6 15 2 23 9 9 6 12 -14 12 -42 0 -88 12 -82 21 2 5
27 11 54 15 l50 7 -33 18 c-74 41 -162 69 -217 69 -16 0 -35 7 -43 14 -20 21
-122 55 -184 63 -51 5 -65 15 -43 28 18 11 11 35 -11 35 -17 0 -20 4 -15 24 5
21 3 23 -21 18 -18 -3 -24 -1 -19 7 4 6 2 11 -5 11 -6 0 -20 10 -30 21 -14 16
-26 20 -48 16 -20 -4 -33 -1 -42 9 -10 13 -26 14 -78 9 -114 -11 -211 -13
-216 -5 -3 5 -14 6 -26 3 -13 -4 -27 2 -40 16 -11 11 -28 21 -38 21 -10 0 -24
7 -32 16 -10 13 -25 14 -80 9 -44 -5 -69 -3 -73 4 -4 6 -17 11 -28 11 -24 0
-131 31 -138 41 -8 9 -81 22 -124 21 -38 0 -66 15 -66 37 0 13 -52 15 -66 2
-14 -13 -122 -21 -126 -9 -3 7 -20 7 -56 -1 -53 -11 -174 -5 -204 10 -9 5 -41
9 -72 9 -30 0 -58 5 -61 10 -3 6 -18 10 -32 10 -22 0 -24 3 -19 26 6 22 4 25
-14 19 -11 -4 -20 -2 -20 4 0 6 -12 8 -30 5 -23 -5 -30 -3 -30 10 0 18 -54 23
-65 6 -3 -5 -21 -10 -38 -10 -18 0 -52 -11 -76 -25 -69 -40 -125 -28 -84 17
18 20 18 21 -2 15 -17 -6 -294 -21 -335 -19 -312 16 -428 23 -485 31 -38 6
-91 11 -118 11 -40 0 -49 4 -56 23 -5 12 -19 30 -31 40 -26 22 -102 25 -282
13 -93 -6 -110 -5 -124 9 -11 11 -25 14 -41 10 -16 -4 -42 2 -71 17 -27 13
-69 23 -97 24 -27 1 -88 7 -135 13 -46 6 -109 11 -140 11 -63 0 -137 35 -132
62 2 12 -19 19 -100 33 -57 10 -148 21 -203 25 -55 4 -115 12 -134 18 -38 13
-73 41 -66 53 3 4 -9 10 -27 14 -18 4 -55 18 -83 30 -27 13 -67 27 -87 30 -22
3 -42 14 -48 25 -10 19 -97 53 -121 48 -8 -2 -14 5 -14 17 0 16 -12 23 -60 36
-83 23 -125 42 -158 73 -15 14 -32 26 -36 26 -5 0 -28 15 -52 33 -24 19 -61
39 -81 46 -21 7 -38 16 -38 21 0 5 -17 14 -37 21 -21 6 -56 22 -78 35 -22 12
-61 28 -88 35 -28 7 -47 17 -47 25 0 8 -6 14 -14 14 -7 0 -19 7 -26 15 -7 8
-21 15 -31 15 -11 0 -19 5 -19 10 0 6 -12 16 -27 23 -16 6 -32 17 -36 24 -4 7
-15 13 -22 13 -8 0 -15 6 -15 14 0 8 -8 17 -17 20 -12 5 -14 9 -5 18 23 23 20
25 -68 45 -8 2 -40 6 -70 11 -44 5 -55 11 -55 25 0 10 -8 23 -18 29 -10 5 -22
20 -27 32 -7 18 -14 22 -43 18 -29 -3 -45 3 -90 37 -29 23 -74 47 -98 55 -117
38 -139 50 -139 75 0 10 -7 24 -15 31 -9 8 -13 21 -9 35 4 17 0 27 -15 37 -12
7 -21 20 -21 29 0 18 -41 49 -65 49 -11 0 -14 6 -9 25 5 19 2 25 -11 25 -12 0
-16 6 -12 20 4 14 0 20 -12 20 -21 0 -58 79 -38 81 7 0 -2 7 -20 15 -22 9 -31
19 -27 29 5 12 -5 15 -57 15 -42 0 -59 3 -50 9 12 8 12 12 2 25 -10 12 -11 23
-2 46 11 32 9 35 -52 54 -29 9 -15 30 28 42 l39 10 -24 17 c-14 9 -30 17 -37
17 -7 0 -13 5 -13 10 0 6 14 10 30 10 l31 0 -22 30 c-12 16 -42 39 -66 50 -24
11 -46 27 -49 34 -3 8 -16 17 -29 20 -29 7 -35 27 -49 166 -19 198 -85 413
-134 439 -57 30 -149 -5 -218 -83 -57 -64 -131 -212 -174 -350 -24 -76 -142
-146 -244 -144 -28 0 -56 5 -63 10 -7 5 -18 6 -25 2 -7 -5 -38 -10 -68 -11
-67 -3 -195 36 -237 73 -15 14 -43 37 -60 51 -18 14 -33 30 -33 36 0 5 -9 19
-20 31 -33 34 -80 93 -80 101 0 22 -101 159 -153 208 -88 82 -194 119 -229 80z
m512 -4058 c-21 -22 -84 -44 -96 -33 -8 9 71 57 95 57 l24 1 -23 -25z m-15
-124 c7 -12 -34 -41 -57 -41 -25 0 -23 14 5 33 25 18 43 21 52 8z m200 -301
c-16 -16 -33 -30 -38 -30 -18 0 -1 35 23 47 41 21 46 15 15 -17z m40 -55 c-16
-13 -37 -24 -45 -24 -9 0 -4 9 15 24 17 14 37 25 45 25 9 0 4 -9 -15 -25z
m185 -164 c-13 -25 -27 -34 -34 -22 -4 5 4 17 16 25 29 20 31 20 18 -3z m60
-281 c0 -11 -7 -20 -15 -20 -17 0 -18 2 -9 24 9 23 24 20 24 -4z m63 1 c-5
-21 -40 -57 -48 -50 -5 6 37 69 47 69 3 0 4 -9 1 -19z m60 -159 c-8 -22 -34
-52 -45 -52 -15 0 -8 30 14 55 23 26 41 25 31 -3z m2227 -2356 c0 -3 -4 -8
-10 -11 -5 -3 -10 -1 -10 4 0 6 5 11 10 11 6 0 10 -2 10 -4z m34 -102 c9 -23
8 -24 -23 -24 -38 0 -49 17 -19 29 32 13 35 13 42 -5z m4173 -126 c-3 -8 -6
-5 -6 6 -1 11 2 17 5 13 3 -3 4 -12 1 -19z"/>
<path d="M1600 6355 c-8 -9 -8 -15 -2 -15 12 0 26 19 19 26 -2 2 -10 -2 -17
-11z"/>
<path d="M11395 5760 c3 -5 11 -10 16 -10 6 0 7 5 4 10 -3 6 -11 10 -16 10 -6
0 -7 -4 -4 -10z"/>
</g>
</svg>
