<?xml version="1.0" standalone="no"?>
<!DOCTYPE svg PUBLIC "-//W3C//DTD SVG 20010904//EN"
 "http://www.w3.org/TR/2001/REC-SVG-20010904/DTD/svg10.dtd">
<svg version="1.0" xmlns="http://www.w3.org/2000/svg"
 width="1280.000000pt" height="1024.000000pt" viewBox="0 0 1280.000000 1024.000000"
 preserveAspectRatio="xMidYMid meet">
<metadata>
Created by potrace 1.15, written by Peter Selinger 2001-2017
</metadata>
<g transform="translate(0.000000,1024.000000) scale(0.100000,-0.100000)"
fill="#000000" stroke="none">
<path d="M4363 7148 c-22 -13 -33 -16 -33 -8 0 9 -3 10 -13 1 -8 -6 -16 -9
-19 -6 -2 3 -15 -6 -28 -20 -23 -24 -47 -35 -35 -15 9 14 -8 13 -23 -2 -6 -6
-24 -12 -39 -14 -64 -6 -106 -15 -133 -29 -35 -18 -44 -19 -34 -3 5 8 2 9 -12
4 -10 -5 -26 -9 -34 -10 -8 -1 -22 -5 -30 -9 -71 -30 -186 -63 -204 -58 -5 1
-21 -2 -35 -8 -55 -21 -187 -36 -196 -22 -8 13 -45 15 -45 2 0 -5 -15 -5 -35
-1 -19 4 -35 5 -35 1 0 -3 -30 -5 -67 -4 -107 4 -226 3 -231 -2 -3 -2 -14 1
-26 7 -11 6 -38 11 -58 9 -26 -1 -38 2 -38 11 0 8 -3 9 -8 3 -4 -5 -18 -11
-32 -13 -14 -1 -32 -5 -40 -8 -8 -4 -28 -8 -45 -9 -16 -2 -42 -6 -57 -9 -15
-2 -30 0 -34 5 -4 6 -11 6 -20 -2 -8 -6 -14 -8 -14 -4 0 5 -9 0 -19 -9 -13
-12 -21 -14 -26 -6 -4 6 -13 2 -25 -12 -10 -12 -28 -23 -41 -23 -35 -2 -79
-16 -79 -25 0 -8 -41 -22 -74 -26 -11 -1 -25 -9 -32 -19 -7 -9 -26 -18 -41
-19 -15 -1 -39 -9 -53 -19 -13 -9 -32 -17 -42 -17 -10 0 -18 -4 -18 -9 0 -5
-10 -11 -23 -15 -38 -9 -107 -60 -122 -90 -24 -46 -10 -116 24 -116 18 0 13
-29 -13 -79 -25 -47 -34 -68 -60 -133 -11 -29 -19 -36 -33 -32 -13 4 -15 3 -4
-4 10 -7 11 -14 1 -32 -16 -30 -29 -337 -21 -505 4 -66 1 -76 -43 -168 -42
-88 -47 -108 -52 -185 -4 -79 -2 -93 21 -146 14 -32 24 -60 21 -63 -11 -12 80
-85 124 -98 14 -4 42 -19 63 -32 20 -13 37 -21 37 -18 0 3 16 -1 36 -10 28
-11 39 -12 54 -3 35 22 34 -2 0 -31 l-34 -28 26 -44 c15 -24 35 -51 45 -59 28
-23 73 -51 73 -45 0 2 12 0 27 -6 15 -5 64 -9 110 -8 112 2 133 4 164 17 15 6
44 14 65 18 45 8 130 49 141 67 4 7 27 26 50 43 24 16 41 34 39 40 -2 5 5 21
15 35 10 13 19 29 19 35 0 27 161 77 175 54 3 -6 15 -6 29 0 13 5 26 6 29 4 6
-6 12 -8 75 -19 23 -4 42 -11 42 -16 0 -4 9 -11 20 -14 12 -4 17 -11 13 -18
-10 -16 -14 -35 -18 -77 -2 -19 -6 -46 -10 -60 -3 -14 -8 -38 -11 -55 -2 -16
-7 -39 -9 -50 -2 -11 0 -27 5 -35 5 -8 5 -22 -2 -33 -25 -48 -31 -170 -11
-235 12 -36 14 -56 7 -60 -6 -4 -14 -18 -17 -32 -9 -35 -69 -113 -142 -183
-157 -151 -185 -179 -185 -187 0 -5 -13 -17 -30 -27 -16 -9 -30 -21 -30 -26 0
-7 -93 -99 -194 -192 -18 -16 -71 -57 -116 -90 -46 -33 -107 -80 -135 -105
-28 -25 -76 -65 -107 -89 -31 -25 -74 -67 -95 -95 -61 -80 -185 -186 -268
-227 -85 -44 -195 -105 -230 -129 -84 -57 -174 -89 -297 -104 -25 -4 -59 -13
-75 -21 -15 -8 -32 -15 -37 -15 -12 0 -65 -61 -72 -85 -4 -11 -11 -23 -17 -26
-5 -4 -11 -34 -13 -67 -2 -32 -8 -71 -14 -86 -5 -15 -10 -46 -9 -69 0 -30 3
-36 8 -23 7 18 8 18 14 2 4 -10 7 -25 7 -34 1 -25 34 -60 64 -68 14 -3 29 -10
32 -15 3 -5 20 -9 38 -9 17 0 36 -4 42 -9 5 -5 41 -18 80 -30 97 -30 208 -24
257 13 18 14 69 36 113 50 77 25 150 65 186 103 10 10 28 30 40 44 28 31 106
75 150 84 45 10 86 32 121 65 25 23 36 27 67 23 31 -4 43 0 72 26 20 17 41 31
47 31 6 0 11 4 11 8 0 4 15 16 33 27 17 10 66 47 108 81 42 35 143 106 225
159 82 52 155 100 162 105 6 6 12 8 12 5 0 -3 24 12 54 34 29 22 56 37 60 34
7 -7 106 58 106 70 0 4 6 7 14 7 8 0 28 12 45 26 17 14 31 22 31 17 0 -4 4 -3
8 2 6 10 290 153 357 181 17 6 44 18 60 25 17 7 32 13 35 14 3 1 21 8 40 16
19 9 47 19 61 22 14 4 38 18 53 32 15 14 33 25 41 25 8 0 17 4 20 10 7 11 101
60 118 61 7 0 28 19 47 43 30 37 129 104 168 114 6 2 12 9 12 16 0 6 10 12 22
13 12 1 25 8 30 16 7 14 54 32 71 29 4 -1 7 2 7 8 0 17 137 -9 166 -31 6 -5
14 -6 18 -2 3 4 13 -2 21 -13 12 -15 16 -16 24 -5 6 9 11 10 15 3 4 -7 15 -8
28 -3 14 5 31 3 47 -5 16 -9 27 -10 29 -4 2 6 9 7 15 3 17 -11 38 -13 32 -3
-3 4 21 6 53 3 123 -10 138 -10 153 -2 10 5 24 2 37 -7 20 -13 21 -13 16 1 -4
10 -2 14 7 11 34 -12 90 -15 112 -7 14 5 40 6 61 1 21 -4 34 -4 30 1 -8 13 10
11 24 -3 9 -9 12 -9 12 0 0 6 6 9 14 6 7 -3 16 2 20 11 4 13 10 14 26 5 11 -6
20 -7 20 -3 0 4 20 8 45 8 25 0 45 3 45 6 0 15 31 17 56 4 28 -14 54 -10 67
12 6 9 13 10 27 3 12 -7 20 -6 22 1 2 7 12 7 32 -1 29 -11 102 -12 121 -1 13
7 29 10 97 15 58 4 98 -11 98 -37 0 -7 6 -24 14 -38 11 -22 47 -120 51 -139 8
-39 42 -123 52 -127 7 -3 13 -11 13 -19 0 -17 19 -51 43 -76 21 -22 84 -119
109 -168 15 -28 17 -49 13 -110 -10 -124 -23 -166 -63 -205 -21 -20 -55 -40
-76 -46 -45 -12 -131 -65 -163 -100 -47 -53 -67 -116 -67 -220 -1 -82 2 -100
18 -118 11 -12 27 -21 37 -21 9 0 19 -5 21 -10 2 -6 19 -13 38 -15 69 -10 146
-24 199 -36 42 -9 67 -10 109 -1 48 10 58 9 93 -8 66 -34 191 -20 238 27 16
16 40 36 54 46 19 12 28 29 33 62 3 25 14 55 23 68 16 21 35 86 45 157 6 42
15 84 54 265 23 107 30 168 31 260 1 66 2 138 3 160 0 22 -9 74 -21 115 -12
41 -24 83 -26 93 -8 34 -69 180 -96 230 -13 24 -10 26 37 33 46 8 56 8 112 2
23 -2 42 -1 42 4 0 4 8 7 18 6 37 -3 63 2 57 12 -6 9 16 15 39 11 4 -1 14 3
22 10 7 6 17 8 23 5 5 -3 11 -3 13 1 7 16 132 41 194 40 35 -1 64 1 64 4 0 3
16 5 35 4 19 -1 35 1 35 5 0 8 55 -9 79 -24 10 -7 12 -6 6 4 -6 10 -4 12 11 6
51 -21 170 -56 204 -61 8 -1 47 -13 85 -26 47 -16 88 -22 125 -20 30 1 65 -2
78 -6 22 -9 21 -11 -35 -70 -32 -33 -75 -80 -95 -105 -74 -90 -222 -196 -338
-242 -43 -17 -156 -43 -229 -52 -50 -7 -104 -38 -135 -78 -22 -30 -29 -52 -37
-129 -11 -104 -7 -145 19 -173 10 -10 21 -27 25 -36 3 -10 15 -18 25 -18 10 0
45 -9 77 -21 72 -25 202 -23 232 4 13 11 44 17 113 19 141 6 187 23 262 96 35
33 88 77 118 98 30 20 68 50 84 65 15 16 35 29 42 29 8 0 14 4 14 9 0 5 19 22
43 38 64 42 127 96 245 213 59 58 132 125 162 150 30 25 72 62 93 82 30 29 45
36 63 32 13 -3 24 -10 24 -15 0 -5 13 -9 29 -9 17 0 33 -5 36 -10 4 -6 10 -8
13 -6 4 2 31 -2 60 -9 28 -8 62 -12 74 -10 12 3 25 -1 29 -7 5 -8 12 -8 21 -2
7 5 30 9 50 9 21 0 38 4 38 8 0 5 8 6 19 2 10 -3 31 0 47 6 16 7 43 14 59 16
17 1 41 7 55 12 14 5 37 12 52 15 15 3 33 12 40 19 18 18 86 45 130 53 46 8
110 29 104 35 -2 2 8 5 24 6 39 3 155 40 219 71 l53 25 19 -24 c10 -13 17 -29
15 -35 -5 -13 3 -50 34 -149 27 -89 50 -173 55 -207 2 -14 5 -30 7 -35 1 -4
-1 -27 -5 -50 -5 -31 -13 -43 -29 -49 -70 -22 -135 -92 -142 -151 -1 -17 -6
-34 -9 -39 -15 -25 -17 -130 -2 -179 17 -60 25 -65 100 -65 30 0 57 -5 61 -11
5 -8 31 -10 80 -6 48 3 88 1 118 -8 55 -17 112 -9 131 17 13 20 13 20 24 -1 9
-15 21 -21 46 -21 69 0 79 12 120 137 33 101 37 122 31 175 -4 33 -11 71 -16
84 -25 65 -80 331 -81 391 -1 37 -5 88 -10 113 -6 25 -12 59 -14 75 -3 17 -9
48 -14 70 -25 102 -30 135 -37 210 -10 129 -51 305 -80 342 -13 17 -24 35 -24
40 0 4 -16 18 -36 31 -31 20 -90 37 -194 55 -66 12 -165 41 -227 67 -63 26
-153 92 -153 112 0 5 -15 25 -32 44 -27 29 -58 94 -71 149 -1 6 -6 15 -10 22
-4 6 -19 51 -33 99 -14 49 -30 94 -36 101 -6 8 -8 16 -5 20 3 3 0 18 -9 34 -8
16 -11 29 -8 29 4 0 -1 9 -11 20 -10 11 -15 23 -12 27 4 3 0 17 -8 30 -9 13
-14 27 -11 32 3 4 -13 29 -34 55 -22 27 -40 53 -40 59 0 6 -6 18 -14 26 -18
20 -46 101 -35 101 4 0 6 9 4 20 -3 16 3 22 26 27 17 3 37 16 46 29 8 13 22
24 29 24 8 0 14 5 14 10 0 6 8 10 18 10 20 1 52 23 52 37 0 6 15 18 34 27 18
8 39 22 46 31 7 8 23 15 36 15 13 0 24 5 24 11 0 5 3 8 8 5 4 -2 31 2 61 10
29 7 57 11 61 9 5 -3 10 -1 12 5 3 11 176 22 192 13 5 -4 30 -7 55 -8 25 0 57
-7 71 -15 14 -8 27 -15 30 -15 28 -6 142 -72 158 -93 6 -9 12 -13 12 -9 0 4
19 -12 43 -35 40 -41 63 -78 139 -228 18 -36 36 -67 39 -70 4 -3 10 -20 14
-37 3 -18 11 -33 16 -33 6 0 7 -5 4 -11 -4 -5 -2 -22 3 -37 6 -15 13 -36 18
-47 4 -11 6 -28 5 -37 -1 -10 3 -18 9 -18 7 0 10 -6 7 -14 -3 -7 0 -19 6 -25
6 -6 7 -11 3 -11 -5 0 -3 -7 4 -15 7 -8 10 -15 6 -15 -3 0 1 -16 9 -36 8 -20
12 -40 9 -45 -3 -5 -1 -9 4 -9 5 0 7 -11 4 -25 -2 -15 0 -25 8 -25 7 0 9 -8 5
-21 -4 -13 -3 -19 3 -16 5 4 8 -4 6 -18 -1 -14 2 -25 7 -25 6 0 7 -4 4 -10 -3
-5 -1 -10 6 -10 6 0 9 -8 6 -20 -3 -11 -2 -22 3 -25 4 -2 11 -19 15 -37 4 -18
9 -38 10 -44 10 -43 51 -150 58 -155 6 -4 7 -15 3 -24 -4 -12 -2 -16 6 -12 8
3 14 -4 14 -18 2 -25 50 -95 65 -95 5 0 9 -7 9 -15 0 -9 9 -25 20 -37 11 -12
20 -27 20 -34 0 -7 9 -16 20 -19 11 -3 20 -12 20 -19 0 -23 110 -126 135 -126
8 0 15 -7 15 -16 0 -8 5 -12 10 -9 6 3 10 1 10 -6 0 -7 3 -10 6 -6 3 3 14 -2
25 -11 11 -9 23 -17 27 -17 6 0 46 -14 97 -35 38 -16 60 -23 68 -24 4 -1 12
-8 18 -16 8 -11 12 -12 16 -2 3 9 12 7 33 -8 34 -24 84 -44 75 -30 -10 16 7
12 28 -7 11 -10 17 -13 14 -6 -8 12 55 12 85 -1 9 -4 22 -5 28 -1 5 3 10 2 10
-3 0 -5 12 -9 26 -9 17 -1 24 4 20 13 -4 10 5 14 32 15 20 1 43 0 51 -1 8 -1
11 4 8 12 -4 11 5 14 34 12 21 -1 36 2 33 7 -3 5 1 9 8 10 93 3 173 33 173 65
0 10 11 24 25 31 14 7 20 13 15 13 -6 0 -10 35 -9 89 1 90 1 90 -27 102 -16 6
-26 15 -23 20 3 5 0 9 -6 9 -6 0 -8 5 -5 10 4 6 -7 10 -27 10 -18 0 -50 9 -71
20 -25 14 -46 18 -60 14 -12 -4 -42 -9 -67 -10 -25 -2 -59 -6 -76 -10 -36 -7
-180 20 -202 38 -7 7 -24 14 -35 15 -12 2 -23 8 -25 13 -2 6 -12 10 -23 10
-10 0 -19 4 -19 8 0 4 -13 13 -30 19 -16 6 -30 18 -30 27 0 15 -12 21 -33 17
-5 -1 -5 3 -2 9 4 7 -2 14 -14 17 -12 3 -21 9 -21 14 0 16 -4 21 -52 70 -30
31 -45 54 -42 64 4 8 1 15 -5 15 -6 0 -11 6 -11 14 0 8 -6 16 -14 19 -19 8
-50 71 -36 75 6 2 3 15 -8 30 -16 23 -33 67 -36 94 -1 3 -4 10 -8 14 -5 4 -8
18 -8 30 0 13 -5 26 -10 29 -6 4 -8 10 -5 15 3 5 -1 20 -10 34 -9 13 -15 28
-13 32 1 5 -5 23 -15 40 -9 17 -14 34 -12 36 3 2 -6 32 -19 64 -13 33 -26 78
-30 100 -4 21 -21 68 -38 104 -17 36 -31 71 -31 78 0 6 -4 12 -9 12 -4 0 -8 5
-8 12 0 14 -71 159 -86 175 -6 6 -24 37 -39 70 -23 47 -131 174 -190 224 -79
67 -108 89 -125 94 -11 4 -18 10 -15 15 3 5 -6 12 -20 16 -14 3 -25 10 -25 15
0 5 -7 9 -15 9 -8 0 -23 4 -33 9 -55 30 -134 61 -156 61 -14 0 -46 7 -71 15
-25 9 -49 13 -54 10 -5 -3 -11 0 -13 6 -3 8 -44 11 -127 10 -69 -1 -127 -3
-130 -5 -3 -2 -35 -7 -71 -10 -112 -11 -155 -18 -166 -27 -7 -6 -22 -12 -34
-14 -12 -2 -33 -11 -46 -20 -13 -8 -31 -17 -41 -19 -25 -4 -51 -14 -103 -39
-25 -12 -54 -23 -64 -24 -11 -2 -25 -8 -31 -13 -7 -5 -15 -7 -18 -3 -4 3 -7 1
-7 -6 0 -7 -4 -9 -10 -6 -5 3 -10 1 -10 -5 0 -6 -4 -9 -9 -5 -5 3 -12 1 -16
-5 -4 -6 -10 -8 -15 -5 -5 3 -16 -2 -24 -11 -9 -9 -23 -13 -31 -10 -8 3 -16
-3 -20 -15 -4 -10 -10 -17 -15 -14 -5 3 -11 1 -15 -4 -3 -5 -13 -10 -23 -9 -9
0 -28 -3 -41 -6 -15 -3 -34 2 -51 14 -16 11 -35 20 -44 20 -9 0 -16 4 -16 10
0 8 -37 23 -60 25 -3 0 -19 12 -35 28 -16 15 -40 27 -52 27 -13 0 -23 3 -23 8
0 8 -59 36 -115 53 -22 7 -44 18 -50 24 -9 12 -25 17 -100 31 -16 3 -34 9 -40
13 -5 5 -21 11 -35 15 -103 29 -131 35 -172 41 -26 4 -51 6 -54 5 -4 -1 -10 3
-13 9 -8 12 -74 18 -228 23 -51 2 -93 5 -93 8 0 3 -35 6 -77 7 -292 7 -393 12
-402 17 -6 4 -17 4 -23 -1 -7 -4 -29 -8 -48 -10 -53 -3 -131 -12 -169 -18 -28
-5 -33 -4 -28 9 5 12 0 16 -18 16 -14 0 -25 -3 -25 -7 0 -10 -22 -13 -160 -18
-63 -2 -149 -7 -190 -10 -41 -4 -96 -8 -121 -10 -25 -1 -55 -6 -67 -9 -14 -5
-22 -3 -22 4 0 8 -7 9 -17 5 -10 -4 -27 -7 -38 -6 -11 1 -45 3 -75 5 -30 3
-80 7 -110 10 -30 4 -89 8 -130 9 -41 2 -92 11 -112 20 -21 9 -38 13 -38 10 0
-3 -6 -1 -12 5 -7 5 -56 9 -110 8 -54 0 -98 2 -98 6 0 5 -25 8 -55 8 -30 0
-55 4 -55 10 0 5 -3 9 -7 8 -5 -1 -26 3 -48 9 -22 6 -65 15 -95 19 -30 4 -49
9 -42 11 31 11 7 22 -45 21 -69 -2 -133 15 -145 36 -5 9 -16 16 -24 16 -18 0
-57 21 -67 37 -4 6 -23 17 -43 23 -37 13 -74 42 -74 60 0 6 -8 10 -17 10 -10
0 -31 7 -46 15 -37 19 -100 36 -157 42 -25 3 -47 8 -50 12 -3 5 -25 11 -50 13
-25 3 -58 11 -75 19 -37 15 -33 14 -78 24 -29 5 -35 10 -25 17 9 7 5 8 -15 5
-22 -3 -27 -1 -22 10 3 11 1 13 -10 9 -8 -3 -22 -9 -32 -13 -9 -3 -14 -2 -11
3 4 5 -9 10 -28 10 -22 1 -31 -2 -27 -10 3 -6 0 -5 -8 2 -7 6 -17 12 -22 12
-4 0 -5 -6 -1 -12 6 -10 4 -10 -7 -2 -8 7 -22 8 -34 3 -30 -12 -47 -11 -39 3
4 6 3 8 -3 5 -19 -12 -84 -17 -78 -7 9 15 -6 11 -42 -12z"/>
</g>
</svg>
